<?xml version="1.0" encoding="iso-8859-1"?>
<!-- Generator: Adobe Illustrator 16.0.0, SVG Export Plug-In . SVG Version: 6.00 Build 0)  -->
<!DOCTYPE svg PUBLIC "-//W3C//DTD SVG 1.1//EN" "http://www.w3.org/Graphics/SVG/1.1/DTD/svg11.dtd">
<svg version="1.1" id="Layer_1" xmlns="http://www.w3.org/2000/svg" xmlns:xlink="http://www.w3.org/1999/xlink" x="0px" y="0px"
	 width="18px" height="18px" viewBox="0 0 18 18" style="enable-background:new 0 0 18 18;" xml:space="preserve">
<g>
	<defs>
		<rect id="SVGID_1_" width="18" height="18"/>
	</defs>
	<clipPath id="SVGID_2_">
		<use xlink:href="#SVGID_1_"  style="overflow:visible;"/>
	</clipPath>
	<path style="clip-path:url(#SVGID_2_);fill:#C88C32;" d="M15.629,12.67l-4.881-9.295C10.268,2.459,9.633,2,9,2
		C8.365,2,7.732,2.459,7.252,3.375l-4.881,9.297C1.41,14.5,2.381,16,4.533,16h8.934C15.619,16,16.59,14.5,15.629,12.67 M9,14
		c-0.555,0-1-0.443-1-1c0-0.553,0.445-1,1-1c0.553,0,1,0.447,1,1C10,13.557,9.553,14,9,14 M10,10c0,0.553-0.447,1-1,1
		c-0.553,0-1-0.447-1-1V6c0-0.553,0.447-1,1-1c0.553,0,1,0.447,1,1V10z"/>
</g>
</svg>
