<?xml version="1.0" encoding="iso-8859-1"?>
<!-- Generator: Adobe Illustrator 16.0.0, SVG Export Plug-In . SVG Version: 6.00 Build 0)  -->
<!DOCTYPE svg PUBLIC "-//W3C//DTD SVG 1.1//EN" "http://www.w3.org/Graphics/SVG/1.1/DTD/svg11.dtd">
<svg version="1.1" id="Layer_1" xmlns="http://www.w3.org/2000/svg" xmlns:xlink="http://www.w3.org/1999/xlink" x="0px" y="0px"
	 width="18px" height="18px" viewBox="0 0 18 18" style="enable-background:new 0 0 18 18;" xml:space="preserve">
<g>
	<defs>
		<rect id="SVGID_1_" width="18" height="18"/>
	</defs>
	<clipPath id="SVGID_2_">
		<use xlink:href="#SVGID_1_"  style="overflow:visible;"/>
	</clipPath>
	<path style="clip-path:url(#SVGID_2_);fill:#DDDCDC;" d="M14.5,11.001c-0.566,0-1.092,0.146-1.562,0.386
		C12.963,11.59,13,11.79,13,12.001c0,0.275-0.225,0.5-0.5,0.5c-0.26,0-0.465-0.199-0.49-0.451c-0.006,0.006-0.012,0.009-0.018,0.014
		C11.994,12.043,12,12.022,12,12.001c0-2.206-1.795-4-4-4c-1.498,0-2.789,0.833-3.475,2.053C4.352,10.03,4.18,10.001,4,10.001
		c-2.209,0-4,1.79-4,4c0,2.209,1.791,4,4,4h10.5c1.932,0,3.5-1.567,3.5-3.5C18,12.567,16.432,11.001,14.5,11.001"/>
	<path style="clip-path:url(#SVGID_2_);fill:#727869;" d="M12.543,9.948c0.555,0.071,1.125,0.066,1.693-0.036
		c0.627-0.112,1.223-0.33,1.77-0.646c0.822-0.475,1.496-1.171,1.953-2.013C18.035,7.11,18,6.936,17.869,6.833
		c-0.131-0.101-0.32-0.102-0.451-0.002c-0.498,0.372-1.062,0.618-1.684,0.73c-2.087,0.375-4.094-0.926-4.471-2.9
		c-0.318-1.669,0.605-3.316,2.248-4.007c0.154-0.065,0.242-0.225,0.209-0.381C13.689,0.116,13.547,0.003,13.375,0
		c-1.008-0.011-1.977,0.235-2.811,0.716C9.357,1.414,8.504,2.515,8.16,3.82C7.873,4.915,7.996,6.032,8.465,7.038
		C10.287,7.208,11.818,8.352,12.543,9.948"/>
</g>
</svg>
