<?xml version="1.0" encoding="iso-8859-1"?>
<!-- Generator: Adobe Illustrator 16.0.0, SVG Export Plug-In . SVG Version: 6.00 Build 0)  -->
<!DOCTYPE svg PUBLIC "-//W3C//DTD SVG 1.1//EN" "http://www.w3.org/Graphics/SVG/1.1/DTD/svg11.dtd">
<svg version="1.1" id="Layer_1" xmlns="http://www.w3.org/2000/svg" xmlns:xlink="http://www.w3.org/1999/xlink" x="0px" y="0px"
	 width="18px" height="18px" viewBox="0 0 18 18" style="enable-background:new 0 0 18 18;" xml:space="preserve">
<g>
	<defs>
		<rect id="SVGID_1_" width="18" height="18"/>
	</defs>
	<clipPath id="SVGID_2_">
		<use xlink:href="#SVGID_1_"  style="overflow:visible;"/>
	</clipPath>
	<path style="clip-path:url(#SVGID_2_);fill-rule:evenodd;clip-rule:evenodd;fill:#DDDCDC;" d="M14.999,12
		c-0.018,0-0.032,0.005-0.051,0.005C14.706,10.309,13.262,9,11.499,9C9.565,9,8,10.567,8,12.5C8,12.776,7.774,13,7.5,13
		C7.223,13,7,12.776,7,12.5c0-0.495,0.1-0.962,0.248-1.408C7.005,11.036,6.757,11,6.5,11C4.565,11,3,12.567,3,14.5S4.565,18,6.5,18
		h8.5c1.656,0,3-1.343,3-3S16.655,12,14.999,12"/>
	<path style="clip-path:url(#SVGID_2_);fill-rule:evenodd;clip-rule:evenodd;fill:#DDDCDC;" d="M3.707,11
		c0.77-0.616,1.732-1,2.793-1c0.314,0,0.633,0.039,0.975,0.118l0.181,0.043C8.446,8.866,9.874,8,11.499,8
		c0.244,0,0.482,0.021,0.72,0.059C12.061,6.76,10.967,5.75,9.624,5.75c-0.239,0-0.469,0.042-0.688,0.103
		C8.466,4.764,7.384,4,6.125,4C4.862,4,3.783,4.764,3.312,5.853C3.091,5.793,2.862,5.75,2.623,5.75C1.173,5.75,0,6.925,0,8.375
		C0,9.824,1.173,11,2.623,11H3.707z"/>
	<path style="clip-path:url(#SVGID_2_);fill:#C88C32;" d="M7.787,3.364c0.52,0.233,0.988,0.568,1.369,0.996
		c0.621-0.484,1.427-0.729,2.267-0.61c1.64,0.235,2.776,1.757,2.545,3.393c-0.071,0.491-0.26,0.933-0.53,1.311
		c0.579,0.282,1.084,0.687,1.495,1.179c0.089-0.002,0.164-0.021,0.265-0.004l1.822,0.309c0.163,0.014,0.315-0.056,0.383-0.2
		c0.069-0.144,0.033-0.316-0.088-0.421l-1.367-1.202c-0.269-0.237-0.397-0.504-0.362-0.753c0.036-0.249,0.231-0.47,0.56-0.622
		l1.649-0.77c0.144-0.068,0.228-0.224,0.202-0.382c-0.026-0.158-0.149-0.28-0.312-0.298l-1.878-0.218
		c-0.364-0.053-0.629-0.211-0.747-0.447c-0.109-0.22-0.084-0.498,0.077-0.788l0.845-1.555c0.078-0.137,0.051-0.311-0.06-0.422
		c-0.11-0.112-0.281-0.138-0.42-0.063l-1.604,0.856c-0.638,0.343-1.244,0.066-1.354-0.631l-0.279-1.746
		c-0.049-0.309-0.539-0.38-0.676-0.096l-0.754,1.597c-0.304,0.639-0.959,0.735-1.481,0.227L8.055,0.732
		C7.94,0.622,7.769,0.599,7.63,0.675C7.492,0.752,7.419,0.91,7.455,1.065l0.379,1.728C7.883,3.016,7.851,3.202,7.787,3.364"/>
</g>
</svg>
