<?xml version="1.0" encoding="iso-8859-1"?>
<!-- Generator: Adobe Illustrator 16.0.0, SVG Export Plug-In . SVG Version: 6.00 Build 0)  -->
<!DOCTYPE svg PUBLIC "-//W3C//DTD SVG 1.1//EN" "http://www.w3.org/Graphics/SVG/1.1/DTD/svg11.dtd">
<svg version="1.1" id="Layer_1" xmlns="http://www.w3.org/2000/svg" xmlns:xlink="http://www.w3.org/1999/xlink" x="0px" y="0px"
	 width="18px" height="18px" viewBox="0 0 18 18" style="enable-background:new 0 0 18 18;" xml:space="preserve">
<g>
	<defs>
		<rect id="SVGID_1_" width="18" height="18"/>
	</defs>
	<clipPath id="SVGID_2_">
		<use xlink:href="#SVGID_1_"  style="overflow:visible;"/>
	</clipPath>
	<path style="clip-path:url(#SVGID_2_);fill-rule:evenodd;clip-rule:evenodd;fill:#BEBDBD;" d="M14.5,3
		c-0.213,0-0.42,0.026-0.622,0.062C13.454,1.308,11.884,0,10,0C7.791,0,6,1.791,6,4c0,0.276-0.224,0.5-0.5,0.5S5,4.276,5,4
		c0-0.622,0.128-1.212,0.337-1.762C4.918,2.089,4.47,2,4,2C1.791,2,0,3.791,0,6s1.791,4,4,4h10.5c1.933,0,3.5-1.566,3.5-3.5
		S16.433,3,14.5,3"/>
	<polygon style="clip-path:url(#SVGID_2_);fill-rule:evenodd;clip-rule:evenodd;fill:#02AFBE;" points="12,18 11,16 12,13 13,16 	
		"/>
	<polygon style="clip-path:url(#SVGID_2_);fill-rule:evenodd;clip-rule:evenodd;fill:#02AFBE;" points="6,18 5,16 6,13 7,16 	"/>
	<path style="clip-path:url(#SVGID_2_);fill:#8CB4B4;" d="M4.738,12.738H3.631l0.785-0.782c0.049-0.052,0.076-0.116,0.076-0.186
		s-0.027-0.136-0.077-0.187c-0.091-0.088-0.278-0.093-0.369,0.001l-0.784,0.782v-1.106c0-0.145-0.117-0.262-0.261-0.262
		c-0.145,0-0.262,0.117-0.262,0.262v1.107l-0.782-0.783c-0.092-0.091-0.278-0.091-0.369,0c-0.051,0.05-0.078,0.114-0.078,0.186
		c0,0.07,0.027,0.135,0.078,0.187l0.781,0.781H1.26c-0.143,0-0.26,0.117-0.26,0.261c0,0.145,0.117,0.262,0.26,0.262h1.109
		l-0.781,0.781c-0.051,0.051-0.078,0.115-0.078,0.186s0.028,0.137,0.078,0.187c0.09,0.09,0.278,0.091,0.369,0l0.782-0.783v1.107
		C2.739,14.883,2.855,15,3,15c0.144,0,0.261-0.117,0.261-0.262v-1.107l0.785,0.783c0.09,0.09,0.278,0.089,0.371,0
		c0.1-0.102,0.1-0.27-0.001-0.373l-0.782-0.78h1.104C4.883,13.261,5,13.144,5,12.999C5,12.855,4.883,12.738,4.738,12.738"/>
	<path style="clip-path:url(#SVGID_2_);fill:#8CB4B4;" d="M10.738,12.738H9.631l0.785-0.782c0.049-0.052,0.076-0.116,0.076-0.186
		s-0.027-0.136-0.077-0.187c-0.091-0.088-0.277-0.093-0.369,0.001l-0.783,0.782v-1.106c0-0.145-0.117-0.262-0.262-0.262
		s-0.262,0.117-0.262,0.262v1.107l-0.782-0.783c-0.092-0.091-0.278-0.091-0.369,0c-0.051,0.05-0.078,0.114-0.078,0.186
		c0,0.07,0.027,0.135,0.078,0.187l0.781,0.781H7.26c-0.143,0-0.26,0.117-0.26,0.261c0,0.145,0.117,0.262,0.26,0.262h1.109
		l-0.781,0.781c-0.051,0.051-0.078,0.115-0.078,0.186s0.028,0.137,0.078,0.187c0.09,0.09,0.278,0.091,0.369,0l0.782-0.783v1.107
		C8.739,14.883,8.855,15,9,15s0.262-0.117,0.262-0.262v-1.107l0.784,0.783c0.091,0.09,0.278,0.089,0.371,0
		c0.101-0.102,0.101-0.27-0.001-0.373l-0.781-0.78h1.104c0.145,0,0.262-0.117,0.262-0.262C11,12.855,10.883,12.738,10.738,12.738"/>
	<path style="clip-path:url(#SVGID_2_);fill:#8CB4B4;" d="M16.738,12.738h-1.107l0.785-0.782c0.049-0.052,0.076-0.116,0.076-0.186
		s-0.027-0.136-0.077-0.187c-0.091-0.088-0.277-0.093-0.369,0.001l-0.783,0.782v-1.106c0-0.145-0.117-0.262-0.262-0.262
		s-0.262,0.117-0.262,0.262v1.107l-0.782-0.783c-0.092-0.091-0.277-0.091-0.369,0c-0.051,0.05-0.077,0.114-0.077,0.186
		c0,0.07,0.026,0.135,0.077,0.187l0.781,0.781h-1.108c-0.144,0-0.261,0.117-0.261,0.261c0,0.145,0.117,0.262,0.261,0.262h1.108
		l-0.781,0.781c-0.051,0.051-0.077,0.115-0.077,0.186s0.027,0.137,0.077,0.187c0.091,0.09,0.278,0.091,0.369,0l0.782-0.783v1.107
		C14.739,14.883,14.855,15,15,15s0.262-0.117,0.262-0.262v-1.107l0.784,0.783c0.091,0.09,0.278,0.089,0.371,0
		c0.101-0.102,0.101-0.27-0.001-0.373l-0.781-0.78h1.104c0.145,0,0.262-0.117,0.262-0.262C17,12.855,16.883,12.738,16.738,12.738"/>
</g>
</svg>
