<?xml version="1.0" encoding="iso-8859-1"?>
<!-- Generator: Adobe Illustrator 16.0.0, SVG Export Plug-In . SVG Version: 6.00 Build 0)  -->
<!DOCTYPE svg PUBLIC "-//W3C//DTD SVG 1.1//EN" "http://www.w3.org/Graphics/SVG/1.1/DTD/svg11.dtd">
<svg version="1.1" id="Layer_1" xmlns="http://www.w3.org/2000/svg" xmlns:xlink="http://www.w3.org/1999/xlink" x="0px" y="0px"
	 width="18px" height="18px" viewBox="0 0 18 18" style="enable-background:new 0 0 18 18;" xml:space="preserve">
<g>
	<defs>
		<rect id="SVGID_1_" width="18" height="18"/>
	</defs>
	<clipPath id="SVGID_2_">
		<use xlink:href="#SVGID_1_"  style="overflow:visible;"/>
	</clipPath>
	<path style="clip-path:url(#SVGID_2_);fill-rule:evenodd;clip-rule:evenodd;fill:#BEBDBD;" d="M14.5,4
		c-0.213,0-0.42,0.026-0.622,0.062C13.454,2.308,11.884,1,10,1C7.791,1,6,2.791,6,5c0,0.276-0.224,0.5-0.5,0.5S5,5.276,5,5
		c0-0.622,0.128-1.212,0.337-1.762C4.918,3.089,4.47,3,4,3C1.791,3,0,4.791,0,7s1.791,4,4,4h10.5c1.933,0,3.5-1.566,3.5-3.5
		C18,5.566,16.433,4,14.5,4"/>
	<path style="clip-path:url(#SVGID_2_);fill-rule:evenodd;clip-rule:evenodd;fill:#00697D;" d="M8,15.8C8,16.463,7.553,17,7,17
		s-1-0.537-1-1.2S7,13,7,13S8,15.137,8,15.8"/>
	<path style="clip-path:url(#SVGID_2_);fill-rule:evenodd;clip-rule:evenodd;fill:#00697D;" d="M16,15.8c0,0.663-0.447,1.2-1,1.2
		s-1-0.537-1-1.2s1-2.8,1-2.8S16,15.137,16,15.8"/>
	<path style="clip-path:url(#SVGID_2_);fill:#8CB4B4;" d="M4.738,14.738H3.631l0.785-0.782c0.049-0.052,0.076-0.116,0.076-0.186
		s-0.027-0.136-0.077-0.187c-0.091-0.088-0.278-0.093-0.369,0.001l-0.784,0.782v-1.106c0-0.145-0.117-0.262-0.261-0.262
		c-0.145,0-0.262,0.117-0.262,0.262v1.107l-0.782-0.783c-0.092-0.091-0.278-0.091-0.369,0c-0.051,0.05-0.078,0.114-0.078,0.186
		c0,0.07,0.027,0.135,0.078,0.187l0.781,0.781H1.26c-0.143,0-0.26,0.117-0.26,0.261c0,0.145,0.117,0.262,0.26,0.262h1.109
		l-0.781,0.781c-0.051,0.051-0.078,0.115-0.078,0.186s0.028,0.137,0.078,0.187c0.09,0.09,0.278,0.091,0.369,0l0.782-0.783v1.107
		C2.739,16.883,2.855,17,3,17c0.144,0,0.261-0.117,0.261-0.262v-1.107l0.785,0.783c0.09,0.09,0.278,0.089,0.371,0
		c0.1-0.102,0.1-0.27-0.001-0.373l-0.782-0.78h1.104C4.883,15.261,5,15.144,5,14.999C5,14.855,4.883,14.738,4.738,14.738"/>
	<path style="clip-path:url(#SVGID_2_);fill:#8CB4B4;" d="M12.738,14.738h-1.107l0.785-0.782c0.049-0.052,0.076-0.116,0.076-0.186
		s-0.027-0.136-0.077-0.187c-0.091-0.088-0.277-0.093-0.369,0.001l-0.783,0.782v-1.106c0-0.145-0.117-0.262-0.262-0.262
		s-0.262,0.117-0.262,0.262v1.107l-0.782-0.783c-0.092-0.091-0.277-0.091-0.369,0c-0.051,0.05-0.077,0.114-0.077,0.186
		c0,0.07,0.026,0.135,0.077,0.187l0.781,0.781H9.261C9.117,14.738,9,14.855,9,14.999c0,0.145,0.117,0.262,0.261,0.262h1.108
		l-0.781,0.781c-0.051,0.051-0.077,0.115-0.077,0.186s0.027,0.137,0.077,0.187c0.091,0.09,0.278,0.091,0.369,0l0.782-0.783v1.107
		C10.739,16.883,10.855,17,11,17s0.262-0.117,0.262-0.262v-1.107l0.784,0.783c0.091,0.09,0.278,0.089,0.371,0
		c0.101-0.102,0.101-0.27-0.001-0.373l-0.781-0.78h1.104c0.145,0,0.262-0.117,0.262-0.262C13,14.855,12.883,14.738,12.738,14.738"/>
</g>
</svg>
