<?xml version="1.0" encoding="iso-8859-1"?>
<!-- Generator: Adobe Illustrator 16.0.0, SVG Export Plug-In . SVG Version: 6.00 Build 0)  -->
<!DOCTYPE svg PUBLIC "-//W3C//DTD SVG 1.1//EN" "http://www.w3.org/Graphics/SVG/1.1/DTD/svg11.dtd">
<svg version="1.1" id="Layer_1" xmlns="http://www.w3.org/2000/svg" xmlns:xlink="http://www.w3.org/1999/xlink" x="0px" y="0px"
	 width="18px" height="18px" viewBox="0 0 18 18" style="enable-background:new 0 0 18 18;" xml:space="preserve">
<g>
	<defs>
		<rect id="SVGID_1_" width="18" height="18"/>
	</defs>
	<clipPath id="SVGID_2_">
		<use xlink:href="#SVGID_1_"  style="overflow:visible;"/>
	</clipPath>
	<path style="clip-path:url(#SVGID_2_);fill:#DDDCDC;" d="M14.963,7.13C14.771,4.821,12.859,3,10.5,3C8.015,3,6,5.015,6,7.5
		C6,7.776,5.776,8,5.5,8S5,7.776,5,7.5c0-0.495,0.072-0.974,0.195-1.431C4.968,6.033,4.738,6,4.5,6C2.015,6,0,8.015,0,10.5
		C0,12.985,2.015,15,4.5,15H14c2.209,0,4-1.791,4-4C18,9.125,16.704,7.563,14.963,7.13"/>
</g>
</svg>
