<?xml version="1.0" encoding="iso-8859-1"?>
<!-- Generator: Adobe Illustrator 16.0.0, SVG Export Plug-In . SVG Version: 6.00 Build 0)  -->
<!DOCTYPE svg PUBLIC "-//W3C//DTD SVG 1.1//EN" "http://www.w3.org/Graphics/SVG/1.1/DTD/svg11.dtd">
<svg version="1.1" id="Layer_1" xmlns="http://www.w3.org/2000/svg" xmlns:xlink="http://www.w3.org/1999/xlink" x="0px" y="0px"
	 width="18px" height="18px" viewBox="0 0 18 18" style="enable-background:new 0 0 18 18;" xml:space="preserve">
<g>
	<defs>
		<rect id="SVGID_1_" width="18" height="18"/>
	</defs>
	<clipPath id="SVGID_2_">
		<use xlink:href="#SVGID_1_"  style="overflow:visible;"/>
	</clipPath>
	<path style="clip-path:url(#SVGID_2_);fill:#727869;" d="M17.822,4.87c-0.164-0.127-0.42-0.128-0.586-0.003
		c-0.322,0.242-0.691,0.401-1.094,0.474c-0.156,0.029-0.314,0.043-0.471,0.043c-1.197,0-2.219-0.805-2.43-1.914
		c-0.207-1.074,0.394-2.136,1.457-2.584c0.205-0.087,0.322-0.305,0.277-0.517C14.932,0.154,14.744,0.003,14.473,0
		c-0.734,0-1.445,0.185-2.051,0.536c-0.906,0.521-1.545,1.348-1.801,2.325c-0.184,0.698-0.146,1.409,0.08,2.071
		c1.115,0.35,1.992,1.217,2.355,2.327C13.49,7.413,13.955,7.5,14.432,7.5c0.245,0,0.49-0.022,0.73-0.065
		c0.467-0.084,0.912-0.246,1.32-0.482c0.615-0.355,1.119-0.876,1.461-1.506C18.052,5.252,18,5.01,17.822,4.87"/>
	<path style="clip-path:url(#SVGID_2_);fill-rule:evenodd;clip-rule:evenodd;fill:#DDDCDC;" d="M15,12
		c-0.018,0-0.033,0.005-0.051,0.005C14.707,10.309,13.262,9,11.5,9C9.566,9,8,10.567,8,12.5C8,12.776,7.775,13,7.5,13
		C7.223,13,7,12.776,7,12.5c0-0.495,0.1-0.962,0.248-1.408C7.006,11.036,6.758,11,6.5,11C4.566,11,3,12.567,3,14.5S4.566,18,6.5,18
		H15c1.656,0,3-1.343,3-3S16.656,12,15,12"/>
	<path style="clip-path:url(#SVGID_2_);fill-rule:evenodd;clip-rule:evenodd;fill:#DDDCDC;" d="M3.707,11
		c0.77-0.616,1.732-1,2.793-1c0.314,0,0.633,0.039,0.975,0.118l0.181,0.043C8.447,8.866,9.875,8,11.5,8
		c0.244,0,0.482,0.021,0.719,0.059C12.061,6.76,10.967,5.75,9.625,5.75c-0.24,0-0.469,0.042-0.688,0.103
		C8.467,4.764,7.385,4,6.125,4C4.863,4,3.783,4.764,3.312,5.853C3.092,5.793,2.863,5.75,2.623,5.75C1.174,5.75,0,6.925,0,8.375
		C0,9.824,1.174,11,2.623,11H3.707z"/>
</g>
</svg>
