<?xml version="1.0" encoding="iso-8859-1"?>
<!-- Generator: Adobe Illustrator 16.0.0, SVG Export Plug-In . SVG Version: 6.00 Build 0)  -->
<!DOCTYPE svg PUBLIC "-//W3C//DTD SVG 1.1//EN" "http://www.w3.org/Graphics/SVG/1.1/DTD/svg11.dtd">
<svg version="1.1" id="Layer_1" xmlns="http://www.w3.org/2000/svg" xmlns:xlink="http://www.w3.org/1999/xlink" x="0px" y="0px"
	 width="18px" height="18px" viewBox="0 0 18 18" style="enable-background:new 0 0 18 18;" xml:space="preserve">
<g>
	<defs>
		<rect id="SVGID_1_" width="18" height="18"/>
	</defs>
	<clipPath id="SVGID_2_">
		<use xlink:href="#SVGID_1_"  style="overflow:visible;"/>
	</clipPath>
	<path style="clip-path:url(#SVGID_2_);fill-rule:evenodd;clip-rule:evenodd;fill:#BEBDBD;" d="M12,8
		c-0.018,0-0.033,0.005-0.05,0.005C11.708,6.309,10.263,5,8.5,5C6.567,5,5,6.567,5,8.5C5,8.776,4.776,9,4.5,9S4,8.776,4,8.5
		c0-0.494,0.1-0.962,0.248-1.408C4.007,7.036,3.759,7,3.5,7C1.567,7,0,8.567,0,10.5C0,12.433,1.567,14,3.5,14H12
		c1.656,0,3-1.344,3-3S13.656,8,12,8"/>
	<path style="clip-path:url(#SVGID_2_);fill:#02AFBE;" d="M8.5,16c0,0.553-0.447,1-1,1s-1-0.447-1-1s0.447-1,1-1S8.5,15.447,8.5,16"
		/>
	<path style="clip-path:url(#SVGID_2_);fill:#02AFBE;" d="M4.5,16c0,0.553-0.447,1-1,1s-1-0.447-1-1s0.447-1,1-1S4.5,15.447,4.5,16"
		/>
	<path style="clip-path:url(#SVGID_2_);fill:#02AFBE;" d="M12.5,16c0,0.553-0.447,1-1,1s-1-0.447-1-1s0.447-1,1-1
		S12.5,15.447,12.5,16"/>
	<path style="clip-path:url(#SVGID_2_);fill:#C88C32;" d="M16.512,6.379L17.85,5.58c0.117-0.072,0.176-0.212,0.141-0.345
		c-0.037-0.131-0.152-0.225-0.292-0.226l-1.622-0.023c-0.314-0.013-0.554-0.125-0.674-0.316c-0.113-0.178-0.115-0.418-0.005-0.68
		l0.587-1.398c0.054-0.123,0.016-0.27-0.089-0.356c-0.103-0.085-0.251-0.092-0.363-0.016l-1.293,0.87
		c-0.515,0.348-1.056,0.164-1.21-0.42l-0.391-1.465c-0.068-0.26-0.493-0.277-0.585-0.023l-0.505,1.427
		c-0.202,0.571-0.752,0.71-1.242,0.322L9.09,1.96C8.985,1.876,8.834,1.871,8.725,1.948c-0.111,0.077-0.16,0.22-0.116,0.348
		l0.472,1.441C9.118,3.85,9.125,3.952,9.124,4.051c0.587,0.084,1.137,0.288,1.633,0.582c0.425-0.267,0.93-0.414,1.468-0.393
		c1.419,0.058,2.521,1.257,2.465,2.673c-0.014,0.339-0.096,0.658-0.228,0.95c0.402,0.316,0.747,0.7,1.004,1.145
		c0.132-0.059,0.288-0.095,0.489-0.082l1.58,0.104c0.141-0.002,0.264-0.074,0.31-0.205c0.046-0.128,0.001-0.272-0.111-0.35
		l-1.271-0.907c-0.25-0.178-0.383-0.394-0.375-0.611C16.098,6.742,16.246,6.537,16.512,6.379"/>
</g>
</svg>
