<?xml version="1.0" encoding="iso-8859-1"?>
<!-- Generator: Adobe Illustrator 16.0.0, SVG Export Plug-In . SVG Version: 6.00 Build 0)  -->
<!DOCTYPE svg PUBLIC "-//W3C//DTD SVG 1.1//EN" "http://www.w3.org/Graphics/SVG/1.1/DTD/svg11.dtd">
<svg version="1.1" id="Layer_1" xmlns="http://www.w3.org/2000/svg" xmlns:xlink="http://www.w3.org/1999/xlink" x="0px" y="0px"
	 width="18px" height="18px" viewBox="0 0 18 18" style="enable-background:new 0 0 18 18;" xml:space="preserve">
<polygon style="fill:#02AFBE;" points="10.5,16 11.5,18 12.5,16 11.5,14 "/>
<polygon style="fill:#02AFBE;" points="6.5,16 7.5,18 8.5,16 7.5,14 "/>
<polygon style="fill:#02AFBE;" points="2.5,16 3.5,18 4.501,16 3.5,14 "/>
<g>
	<defs>
		<rect id="SVGID_1_" width="18" height="18"/>
	</defs>
	<clipPath id="SVGID_2_">
		<use xlink:href="#SVGID_1_"  style="overflow:visible;"/>
	</clipPath>
	<path style="clip-path:url(#SVGID_2_);fill-rule:evenodd;clip-rule:evenodd;fill:#BEBDBD;" d="M12.001,7
		c-0.019,0-0.033,0.005-0.052,0.005C11.707,5.309,10.263,4,8.5,4C6.566,4,5,5.567,5,7.5C5,7.776,4.775,8,4.5,8
		C4.224,8,4,7.776,4,7.5c0-0.494,0.1-0.962,0.248-1.408C4.006,6.036,3.758,6,3.5,6C1.566,6,0,7.567,0,9.5C0,11.433,1.566,13,3.5,13
		h8.5c1.655,0,3-1.344,3-3C15.001,8.344,13.656,7,12.001,7"/>
	<path style="clip-path:url(#SVGID_2_);fill:#727869;" d="M17.823,4.87c-0.164-0.128-0.421-0.128-0.587-0.003
		c-0.321,0.242-0.69,0.401-1.094,0.475c-0.156,0.027-0.313,0.042-0.47,0.042c-1.198,0-2.219-0.805-2.43-1.914
		c-0.207-1.074,0.393-2.136,1.457-2.584c0.205-0.087,0.321-0.304,0.276-0.517C14.932,0.154,14.745,0.003,14.473,0
		c-0.733,0-1.445,0.185-2.05,0.535c-0.907,0.522-1.545,1.349-1.801,2.326c-0.056,0.209-0.082,0.42-0.101,0.63
		c1.035,0.529,1.851,1.451,2.231,2.58c0.925,0.177,1.74,0.675,2.32,1.372c0.028-0.005,0.061-0.003,0.09-0.008
		c0.467-0.084,0.912-0.246,1.319-0.482c0.615-0.355,1.119-0.877,1.461-1.506C18.052,5.252,18.001,5.01,17.823,4.87"/>
</g>
</svg>
