<?xml version="1.0" encoding="iso-8859-1"?>
<!-- Generator: Adobe Illustrator 16.0.0, SVG Export Plug-In . SVG Version: 6.00 Build 0)  -->
<!DOCTYPE svg PUBLIC "-//W3C//DTD SVG 1.1//EN" "http://www.w3.org/Graphics/SVG/1.1/DTD/svg11.dtd">
<svg version="1.1" id="Layer_1" xmlns="http://www.w3.org/2000/svg" xmlns:xlink="http://www.w3.org/1999/xlink" x="0px" y="0px"
	 width="18px" height="18px" viewBox="0 0 18 18" style="enable-background:new 0 0 18 18;" xml:space="preserve">
<g>
	<defs>
		<rect id="SVGID_1_" width="18" height="18"/>
	</defs>
	<clipPath id="SVGID_2_">
		<use xlink:href="#SVGID_1_"  style="overflow:visible;"/>
	</clipPath>
	<path style="clip-path:url(#SVGID_2_);fill:#8CB4B4;" d="M4.238,15.738H3.131l0.785-0.782c0.049-0.051,0.076-0.116,0.076-0.186
		s-0.027-0.136-0.077-0.187c-0.091-0.089-0.278-0.093-0.369,0.001l-0.784,0.781v-1.105c0-0.145-0.117-0.262-0.261-0.262
		c-0.145,0-0.262,0.117-0.262,0.262v1.107l-0.782-0.783c-0.092-0.092-0.278-0.092-0.369,0c-0.051,0.051-0.078,0.114-0.078,0.186
		c0,0.07,0.027,0.135,0.078,0.186l0.781,0.782H0.76c-0.143,0-0.26,0.117-0.26,0.261c0,0.145,0.117,0.262,0.26,0.262h1.109
		l-0.781,0.781c-0.051,0.051-0.078,0.115-0.078,0.186s0.028,0.137,0.078,0.187c0.09,0.09,0.278,0.091,0.369-0.001l0.782-0.782v1.107
		C2.239,17.883,2.355,18,2.5,18c0.144,0,0.261-0.117,0.261-0.262V16.63l0.785,0.784c0.09,0.09,0.278,0.089,0.371-0.001
		c0.1-0.101,0.1-0.269-0.001-0.372l-0.782-0.78h1.104c0.145,0,0.262-0.117,0.262-0.262C4.5,15.855,4.383,15.738,4.238,15.738"/>
	<path style="clip-path:url(#SVGID_2_);fill:#8CB4B4;" d="M9.238,15.738H8.131l0.785-0.782c0.049-0.051,0.076-0.116,0.076-0.186
		s-0.027-0.136-0.077-0.187c-0.091-0.089-0.278-0.093-0.369,0.001l-0.784,0.781v-1.105c0-0.145-0.117-0.262-0.261-0.262
		c-0.145,0-0.262,0.117-0.262,0.262v1.107l-0.782-0.783c-0.092-0.092-0.278-0.092-0.369,0c-0.051,0.051-0.078,0.114-0.078,0.186
		c0,0.07,0.027,0.135,0.078,0.186l0.781,0.782H5.76c-0.143,0-0.26,0.117-0.26,0.261c0,0.145,0.117,0.262,0.26,0.262h1.109
		l-0.781,0.781c-0.051,0.051-0.078,0.115-0.078,0.186s0.028,0.137,0.078,0.187c0.09,0.09,0.278,0.091,0.369-0.001l0.782-0.782v1.107
		C7.239,17.883,7.355,18,7.5,18c0.144,0,0.261-0.117,0.261-0.262V16.63l0.785,0.784c0.09,0.09,0.278,0.089,0.371-0.001
		c0.1-0.101,0.1-0.269-0.001-0.372l-0.782-0.78h1.104c0.145,0,0.262-0.117,0.262-0.262C9.5,15.855,9.383,15.738,9.238,15.738"/>
	<path style="clip-path:url(#SVGID_2_);fill:#8CB4B4;" d="M14.238,15.738h-1.107l0.785-0.782c0.049-0.051,0.076-0.116,0.076-0.186
		s-0.027-0.136-0.077-0.187c-0.091-0.089-0.277-0.093-0.369,0.001l-0.783,0.781v-1.105c0-0.145-0.117-0.262-0.262-0.262
		s-0.262,0.117-0.262,0.262v1.107l-0.782-0.783c-0.092-0.092-0.277-0.092-0.369,0c-0.051,0.051-0.077,0.114-0.077,0.186
		c0,0.07,0.026,0.135,0.077,0.186l0.781,0.782h-1.108c-0.144,0-0.261,0.117-0.261,0.261c0,0.145,0.117,0.262,0.261,0.262h1.108
		l-0.781,0.781c-0.051,0.051-0.077,0.115-0.077,0.186s0.027,0.137,0.077,0.187c0.091,0.09,0.278,0.091,0.369-0.001l0.782-0.782
		v1.107c0,0.145,0.116,0.262,0.261,0.262s0.262-0.117,0.262-0.262V16.63l0.784,0.784c0.091,0.09,0.278,0.089,0.371-0.001
		c0.101-0.101,0.101-0.269-0.001-0.372l-0.781-0.78h1.104c0.145,0,0.262-0.117,0.262-0.262C14.5,15.855,14.383,15.738,14.238,15.738
		"/>
	<path style="clip-path:url(#SVGID_2_);fill-rule:evenodd;clip-rule:evenodd;fill:#BEBDBD;" d="M12,7
		c-0.018,0-0.033,0.005-0.05,0.005C11.708,5.309,10.263,4,8.5,4C6.567,4,5,5.567,5,7.5C5,7.776,4.776,8,4.5,8S4,7.776,4,7.5
		c0-0.494,0.1-0.962,0.248-1.408C4.007,6.036,3.759,6,3.5,6C1.567,6,0,7.567,0,9.5C0,11.433,1.567,13,3.5,13H12c1.656,0,3-1.344,3-3
		C15,8.344,13.656,7,12,7"/>
	<path style="clip-path:url(#SVGID_2_);fill:#727869;" d="M17.822,4.87c-0.164-0.128-0.42-0.128-0.586-0.003
		c-0.322,0.242-0.69,0.401-1.094,0.475c-0.155,0.027-0.313,0.042-0.471,0.042c-1.196,0-2.219-0.805-2.43-1.914
		c-0.206-1.074,0.394-2.136,1.457-2.584c0.205-0.087,0.322-0.304,0.277-0.517C14.932,0.154,14.744,0.003,14.473,0
		c-0.734,0-1.444,0.185-2.051,0.535c-0.905,0.522-1.545,1.349-1.801,2.326c-0.055,0.209-0.081,0.42-0.099,0.63
		c1.034,0.529,1.85,1.451,2.229,2.58c0.927,0.177,1.74,0.675,2.321,1.372c0.029-0.005,0.06-0.003,0.089-0.008
		c0.467-0.084,0.912-0.246,1.32-0.482c0.615-0.355,1.12-0.877,1.462-1.506C18.052,5.252,18,5.01,17.822,4.87"/>
</g>
</svg>
