<?xml version="1.0" encoding="iso-8859-1"?>
<!-- Generator: Adobe Illustrator 16.0.0, SVG Export Plug-In . SVG Version: 6.00 Build 0)  -->
<!DOCTYPE svg PUBLIC "-//W3C//DTD SVG 1.1//EN" "http://www.w3.org/Graphics/SVG/1.1/DTD/svg11.dtd">
<svg version="1.1" id="Layer_1" xmlns="http://www.w3.org/2000/svg" xmlns:xlink="http://www.w3.org/1999/xlink" x="0px" y="0px"
	 width="18px" height="18px" viewBox="0 0 18 18" style="enable-background:new 0 0 18 18;" xml:space="preserve">
<g>
	<defs>
		<rect id="SVGID_1_" width="18" height="18"/>
	</defs>
	<clipPath id="SVGID_2_">
		<use xlink:href="#SVGID_1_"  style="overflow:visible;"/>
	</clipPath>
	<path style="clip-path:url(#SVGID_2_);fill:#BEBDBD;" d="M17.5,13.5h-17C0.223,13.5,0,13.725,0,14c0,0.277,0.223,0.5,0.5,0.5h17
		c0.275,0,0.5-0.223,0.5-0.5C18,13.725,17.775,13.5,17.5,13.5"/>
	<path style="clip-path:url(#SVGID_2_);fill:#BEBDBD;" d="M17.5,11.5h-17C0.223,11.5,0,11.725,0,12c0,0.277,0.223,0.5,0.5,0.5h17
		c0.275,0,0.5-0.223,0.5-0.5C18,11.725,17.775,11.5,17.5,11.5"/>
	<path style="clip-path:url(#SVGID_2_);fill:#BEBDBD;" d="M17.5,9.5h-17C0.223,9.5,0,9.725,0,10c0,0.277,0.223,0.5,0.5,0.5h17
		c0.275,0,0.5-0.223,0.5-0.5C18,9.725,17.775,9.5,17.5,9.5"/>
	<path style="clip-path:url(#SVGID_2_);fill:#BEBDBD;" d="M17.5,7.5h-17C0.223,7.5,0,7.725,0,8c0,0.277,0.223,0.5,0.5,0.5h17
		C17.775,8.5,18,8.277,18,8C18,7.725,17.775,7.5,17.5,7.5"/>
	<path style="clip-path:url(#SVGID_2_);fill:#BEBDBD;" d="M17.5,5.5h-17C0.223,5.5,0,5.725,0,6c0,0.277,0.223,0.5,0.5,0.5h17
		C17.775,6.5,18,6.277,18,6C18,5.725,17.775,5.5,17.5,5.5"/>
	<path style="clip-path:url(#SVGID_2_);fill:#BEBDBD;" d="M0.5,4.5h17C17.775,4.5,18,4.277,18,4c0-0.275-0.225-0.5-0.5-0.5h-17
		C0.223,3.5,0,3.725,0,4C0,4.277,0.223,4.5,0.5,4.5"/>
</g>
</svg>
