<?xml version="1.0" encoding="iso-8859-1"?>
<!-- Generator: Adobe Illustrator 16.0.0, SVG Export Plug-In . SVG Version: 6.00 Build 0)  -->
<!DOCTYPE svg PUBLIC "-//W3C//DTD SVG 1.1//EN" "http://www.w3.org/Graphics/SVG/1.1/DTD/svg11.dtd">
<svg version="1.1" id="Layer_1" xmlns="http://www.w3.org/2000/svg" xmlns:xlink="http://www.w3.org/1999/xlink" x="0px" y="0px"
	 width="18px" height="18px" viewBox="0 0 18 18" style="enable-background:new 0 0 18 18;" xml:space="preserve">
<g>
	<defs>
		<rect id="SVGID_1_" width="18" height="18"/>
	</defs>
	<clipPath id="SVGID_2_">
		<use xlink:href="#SVGID_1_"  style="overflow:visible;"/>
	</clipPath>
	<path style="clip-path:url(#SVGID_2_);fill:#727869;" d="M15.876,12.924c-0.161-0.184-0.434-0.234-0.651-0.122
		c-0.82,0.417-1.704,0.63-2.629,0.63c-3.116,0-5.651-2.451-5.651-5.463c0-2.544,1.789-4.729,4.352-5.313
		c0.242-0.055,0.413-0.266,0.408-0.506c-0.004-0.24-0.181-0.446-0.425-0.494c-1.453-0.283-2.921-0.178-4.255,0.31
		C5.088,2.672,3.551,4.07,2.695,5.902C1.84,7.733,1.771,9.773,2.503,11.645c1.135,2.904,4.06,4.855,7.28,4.855
		c0.935,0,1.854-0.163,2.733-0.483c1.317-0.482,2.482-1.33,3.374-2.45C16.043,13.375,16.036,13.108,15.876,12.924"/>
</g>
</svg>
